<svg clip-rule="evenodd" fill-rule="evenodd" height="454" image-rendering="optimizeQuality" shape-rendering="geometricPrecision" text-rendering="geometricPrecision" width="506" xmlns="http://www.w3.org/2000/svg"><path d="m340.5-.5h146c9.333 3.33333 15.667 9.66667 19 19v98c-3.151 9.316-9.484 15.483-19 18.5-48.667.667-97.333.667-146 0-9.5-2.833-15.667-9-18.5-18.5-.667-32.6667-.667-65.3333 0-98 3.017-9.51613 9.184-15.84946 18.5-19z" fill="#ffebc5"/><path d="m300.5 149.5c48.668-.167 97.334 0 146 .5 9.5 2.833 15.667 9 18.5 18.5.667 84 .667 168 0 252-2.833 9.5-9 15.667-18.5 18.5-48.667.667-97.333.667-146 0-9.5-2.833-15.667-9-18.5-18.5-.5-28.998-.667-57.998-.5-87-49.001.167-98.001 0-147-.5-9.5-2.833-15.667-9-18.5-18.5-.667-17.333-.667-34.667 0-52 2.833-9.5 9-15.667 18.5-18.5 48.999-.5 97.999-.667 147-.5-.167-25.002 0-50.002.5-75 3.017-9.516 9.184-15.849 18.5-19z" fill="#feebc5"/><g fill="#ffebc5"><path d="m80.5 453.5c-20.6667 0-41.3333 0-62 0-9.33333-3.333-15.66667-9.667-19-19 0-57.333 0-114.667 0-172 3.15054-9.316 9.48387-15.483 19-18.5 20.6667-.667 41.3333-.667 62 0 9.5 2.833 15.6667 9 18.5 18.5.6667 57.333.6667 114.667 0 172-3.0174 9.516-9.1841 15.849-18.5 19z"/><path d="m134.5 349.5c37.335-.167 74.668 0 112 .5 9.5 2.833 15.667 9 18.5 18.5.667 17.333.667 34.667 0 52-2.833 9.5-9 15.667-18.5 18.5-37.333.667-74.667.667-112 0-9.5-2.833-15.667-9-18.5-18.5-.667-17.333-.667-34.667 0-52 3.017-9.516 9.184-15.849 18.5-19z"/></g></svg>